# xmcd
# Track frame offsets:
# 150
# 10122
# 20722
# 32662
# 44180
# 56744
# 66782
# 79174
# 90116
# 102424
# 114833
# 127155
# 137950
# 148503
# 160227
# 172241
# 181873
# 194188
# 204452
# 216450
# 227670
# 238051
# 250016
# 261712
#
# Disc length: 3651 seconds
# Revision: 0
# Processed by: cddbd v1.5.2PL0 Copyright (c) Steve Scherf et al.
# Submitted via: VisiTrax 2.11.2.271 - For more info visit www.synapsa.com
#
DISCID=6d0e4118
DTITLE=Lightnin' Hopkins - Charly Blues masterworks Volume 18
DYEAR=1960
DGENRE=Blues
TTITLE0=Hopkins' Sky Hop
TTITLE1=Nothin' But The Blues
TTITLE2=Don't Think 'Cause You're Pretty
TTITLE3=Lightnin's Boogie
TTITLE4=Life I Used To Live
TTITLE5=Sick Feelin' Blues
TTITLE6=Evil Hearted Woman
TTITLE7=Blues For My Cookie
TTITLE8=Sittin' Down Thinkin'
TTITLE9=My Baby's Gone
TTITLE10=Lonesome In Your Home
TTITLE11=Lightnin's Special
TTITLE12=My Little Kewpie Doll
TTITLE13=Grandma's Boogie
TTITLE14=Shine On Moon
TTITLE15=They Wonder Who I Am
TTITLE16=Please Don't Go Baby
TTITLE17=Had A Gal Called Sal
TTITLE18=Remember Me
TTITLE19=I Love You, Baby
TTITLE20=Don't Need No Job
TTITLE21=Tim Moore's Farm
TTITLE22=T' Model Blues
TTITLE23=Coffee Blues
EXTD=Charly CBMCD018
EXTT0=
EXTT1=
EXTT2=
EXTT3=
EXTT4=
EXTT5=
EXTT6=
EXTT7=
EXTT8=
EXTT9=
EXTT10=
EXTT11=
EXTT12=
EXTT13=
EXTT14=
EXTT15=
EXTT16=
EXTT17=
EXTT18=
EXTT19=
EXTT20=
EXTT21=
EXTT22=
EXTT23=
PLAYORDER=
